<?xml version="1.0" encoding="UTF-8" standalone="no"?>
<svg
   xmlns:dc="http://purl.org/dc/elements/1.1/"
   xmlns:cc="http://creativecommons.org/ns#"
   xmlns:rdf="http://www.w3.org/1999/02/22-rdf-syntax-ns#"
   xmlns:svg="http://www.w3.org/2000/svg"
   xmlns="http://www.w3.org/2000/svg"
   viewBox="0 0 816 1056"
   height="1056"
   width="816"
   xml:space="preserve"
   id="svg2"
   version="1.1"><metadata
     id="metadata8"><rdf:RDF><cc:Work
         rdf:about=""><dc:format>image/svg+xml</dc:format><dc:type
           rdf:resource="http://purl.org/dc/dcmitype/StillImage" /></cc:Work></rdf:RDF></metadata><defs
     id="defs6"><clipPath
       id="clipPath18"
       clipPathUnits="userSpaceOnUse"><path
         id="path16"
         d="M 0,792 H 612 V 0 H 0 Z" /></clipPath></defs><g
     transform="matrix(1.3333333,0,0,-1.3333333,0,1056)"
     id="g10"><g
       id="g12"><g
         clip-path="url(#clipPath18)"
         id="g14"><path
           id="path20"
           style="fill:#ed1b24;fill-opacity:1;fill-rule:nonzero;stroke:none"
           d="M 508.58,305.914 H 97.601 V 491.905 H 508.58 Z" /><path
           id="path22"
           style="fill:#ffffff;fill-opacity:1;fill-rule:nonzero;stroke:none"
           d="m 452.5,465.5 h 23 v -109 H 495 V 329 h -42.5 z" /><path
           id="path24"
           style="fill:none;stroke:#ffffff;stroke-width:1.66700006;stroke-linecap:butt;stroke-linejoin:miter;stroke-miterlimit:4;stroke-dasharray:none;stroke-opacity:1"
           d="m 497,458.25 c 0,-4.833 -3.918,-8.75 -8.75,-8.75 -4.832,0 -8.75,3.917 -8.75,8.75 0,4.833 3.918,8.75 8.75,8.75 4.832,0 8.75,-3.917 8.75,-8.75 z" /><path
           id="path26"
           style="fill:#ffffff;fill-opacity:1;fill-rule:nonzero;stroke:none"
           d="m 486.051,458.878 h 2.609 c 0.555,0 0.988,0.058 1.302,0.173 0.313,0.114 0.552,0.297 0.715,0.55 0.163,0.252 0.244,0.526 0.244,0.822 0,0.434 -0.157,0.79 -0.473,1.07 -0.315,0.279 -0.812,0.42 -1.493,0.42 h -2.904 z m -1.218,-5.13 v 9.18 h 4.071 c 0.819,0 1.44,-0.083 1.867,-0.248 0.423,-0.165 0.763,-0.456 1.018,-0.874 0.255,-0.417 0.383,-0.879 0.383,-1.385 0,-0.651 -0.212,-1.201 -0.633,-1.648 -0.421,-0.447 -1.072,-0.731 -1.953,-0.852 0.322,-0.154 0.566,-0.306 0.733,-0.457 0.355,-0.325 0.691,-0.731 1.006,-1.219 l 1.588,-2.497 h -1.518 l -1.213,1.908 c -0.356,0.551 -0.648,0.972 -0.877,1.264 -0.23,0.292 -0.435,0.497 -0.616,0.614 -0.181,0.118 -0.367,0.199 -0.554,0.245 -0.139,0.03 -0.364,0.044 -0.676,0.044 h -1.408 v -4.075 z" /><path
           id="path28"
           style="fill:#ffffff;fill-opacity:1;fill-rule:nonzero;stroke:none"
           d="m 294,400.5 c 16.5,1 15,21.5 15,21.5 -2.5,20 -15,19 -15,19 z M 241,369 234,410.5 228,369 Z M 114.5,329.5 v 136 h 31 l 11,-57 12.5,57 h 30 V 343 l 19.5,122.5 H 249 L 268,343 v 122 h 40.5 c 0,0 14,-2.5 21,-22 l -3,22.5 H 351 l 11.5,-70.5 12,70 h 69 V 439.5 H 423 v -28 h 19.5 V 383 h -19 v -26 h 20 V 329.5 H 399 v 131 l -23,-131 h -27.5 l -14.5,87 c 0,0 -2.5,-24 -16,-35 l 17.5,-52 h -24 l -17,45.5 V 329.5 H 246 l -2.5,13 H 225 l -4,-13 h -46 v 50 l -12,-50 h -12.5 l -11,49.5 v -49 z" /></g></g></g></svg>